<svg width="400" height="300" viewBox="0 0 400 300" xmlns="http://www.w3.org/2000/svg">
  <!-- Background gradient -->
  <defs>
    <linearGradient id="skyGradient" x1="0%" y1="0%" x2="0%" y2="100%">
      <stop offset="0%" style="stop-color:#87CEEB;stop-opacity:1" />
      <stop offset="100%" style="stop-color:#E0F6FF;stop-opacity:1" />
    </linearGradient>
    <linearGradient id="hillGradient" x1="0%" y1="0%" x2="0%" y2="100%">
      <stop offset="0%" style="stop-color:#8FBC8F;stop-opacity:1" />
      <stop offset="100%" style="stop-color:#556B2F;stop-opacity:1" />
    </linearGradient>
    <linearGradient id="buildingGradient" x1="0%" y1="0%" x2="0%" y2="100%">
      <stop offset="0%" style="stop-color:#F5F5F5;stop-opacity:1" />
      <stop offset="100%" style="stop-color:#D3D3D3;stop-opacity:1" />
    </linearGradient>
    <linearGradient id="accentGradient" x1="0%" y1="0%" x2="0%" y2="100%">
      <stop offset="0%" style="stop-color:#B8860B;stop-opacity:1" />
      <stop offset="100%" style="stop-color:#DAA520;stop-opacity:1" />
    </linearGradient>
  </defs>
  
  <!-- Sky background -->
  <rect width="400" height="300" fill="url(#skyGradient)"/>
  
  <!-- Hills in background -->
  <path d="M0 180 Q100 140 200 160 T400 150 L400 300 L0 300 Z" fill="url(#hillGradient)" opacity="0.7"/>
  <path d="M0 200 Q150 170 300 180 T400 175 L400 300 L0 300 Z" fill="url(#hillGradient)" opacity="0.5"/>
  
  <!-- Modern buildings on hillside -->
  <!-- Building 1 -->
  <rect x="80" y="120" width="40" height="80" fill="url(#buildingGradient)" rx="2"/>
  <rect x="85" y="125" width="8" height="12" fill="#4A90E2" opacity="0.8"/>
  <rect x="95" y="125" width="8" height="12" fill="#4A90E2" opacity="0.8"/>
  <rect x="105" y="125" width="8" height="12" fill="#4A90E2" opacity="0.8"/>
  <rect x="85" y="140" width="8" height="12" fill="#4A90E2" opacity="0.8"/>
  <rect x="95" y="140" width="8" height="12" fill="#4A90E2" opacity="0.8"/>
  <rect x="105" y="140" width="8" height="12" fill="#4A90E2" opacity="0.8"/>
  <rect x="85" y="155" width="8" height="12" fill="#4A90E2" opacity="0.8"/>
  <rect x="95" y="155" width="8" height="12" fill="#4A90E2" opacity="0.8"/>
  <rect x="105" y="155" width="8" height="12" fill="#4A90E2" opacity="0.8"/>
  
  <!-- Building 2 -->
  <rect x="140" y="110" width="45" height="90" fill="url(#buildingGradient)" rx="2"/>
  <rect x="145" y="115" width="10" height="15" fill="#4A90E2" opacity="0.8"/>
  <rect x="158" y="115" width="10" height="15" fill="#4A90E2" opacity="0.8"/>
  <rect x="171" y="115" width="10" height="15" fill="#4A90E2" opacity="0.8"/>
  <rect x="145" y="135" width="10" height="15" fill="#4A90E2" opacity="0.8"/>
  <rect x="158" y="135" width="10" height="15" fill="#4A90E2" opacity="0.8"/>
  <rect x="171" y="135" width="10" height="15" fill="#4A90E2" opacity="0.8"/>
  <rect x="145" y="155" width="10" height="15" fill="#4A90E2" opacity="0.8"/>
  <rect x="158" y="155" width="10" height="15" fill="#4A90E2" opacity="0.8"/>
  <rect x="171" y="155" width="10" height="15" fill="#4A90E2" opacity="0.8"/>
  
  <!-- Building 3 -->
  <rect x="200" y="125" width="35" height="75" fill="url(#buildingGradient)" rx="2"/>
  <rect x="205" y="130" width="7" height="10" fill="#4A90E2" opacity="0.8"/>
  <rect x="215" y="130" width="7" height="10" fill="#4A90E2" opacity="0.8"/>
  <rect x="225" y="130" width="7" height="10" fill="#4A90E2" opacity="0.8"/>
  <rect x="205" y="145" width="7" height="10" fill="#4A90E2" opacity="0.8"/>
  <rect x="215" y="145" width="7" height="10" fill="#4A90E2" opacity="0.8"/>
  <rect x="225" y="145" width="7" height="10" fill="#4A90E2" opacity="0.8"/>
  <rect x="205" y="160" width="7" height="10" fill="#4A90E2" opacity="0.8"/>
  <rect x="215" y="160" width="7" height="10" fill="#4A90E2" opacity="0.8"/>
  <rect x="225" y="160" width="7" height="10" fill="#4A90E2" opacity="0.8"/>
  
  <!-- Building 4 -->
  <rect x="250" y="115" width="50" height="85" fill="url(#buildingGradient)" rx="2"/>
  <rect x="255" y="120" width="12" height="18" fill="#4A90E2" opacity="0.8"/>
  <rect x="270" y="120" width="12" height="18" fill="#4A90E2" opacity="0.8"/>
  <rect x="285" y="120" width="12" height="18" fill="#4A90E2" opacity="0.8"/>
  <rect x="255" y="145" width="12" height="18" fill="#4A90E2" opacity="0.8"/>
  <rect x="270" y="145" width="12" height="18" fill="#4A90E2" opacity="0.8"/>
  <rect x="285" y="145" width="12" height="18" fill="#4A90E2" opacity="0.8"/>
  <rect x="255" y="170" width="12" height="18" fill="#4A90E2" opacity="0.8"/>
  <rect x="270" y="170" width="12" height="18" fill="#4A90E2" opacity="0.8"/>
  <rect x="285" y="170" width="12" height="18" fill="#4A90E2" opacity="0.8"/>
  
  <!-- Accent elements -->
  <rect x="140" y="105" width="45" height="5" fill="url(#accentGradient)"/>
  <rect x="250" y="110" width="50" height="5" fill="url(#accentGradient)"/>
  
  <!-- Trees and landscaping -->
  <circle cx="60" cy="180" r="15" fill="#228B22" opacity="0.8"/>
  <rect x="58" y="180" width="4" height="20" fill="#8B4513"/>
  
  <circle cx="320" cy="170" r="18" fill="#228B22" opacity="0.8"/>
  <rect x="318" y="170" width="4" height="25" fill="#8B4513"/>
  
  <circle cx="350" cy="185" r="12" fill="#228B22" opacity="0.8"/>
  <rect x="348" y="185" width="4" height="15" fill="#8B4513"/>
  
  <!-- Clouds -->
  <ellipse cx="100" cy="50" rx="25" ry="15" fill="white" opacity="0.8"/>
  <ellipse cx="115" cy="45" rx="20" ry="12" fill="white" opacity="0.8"/>
  <ellipse cx="85" cy="45" rx="18" ry="10" fill="white" opacity="0.8"/>
  
  <ellipse cx="300" cy="40" rx="30" ry="18" fill="white" opacity="0.8"/>
  <ellipse cx="320" cy="35" rx="25" ry="15" fill="white" opacity="0.8"/>
  <ellipse cx="280" cy="35" rx="22" ry="12" fill="white" opacity="0.8"/>
  
  <!-- Premium badge element -->
  <rect x="20" y="20" width="120" height="30" fill="url(#accentGradient)" rx="15" opacity="0.9"/>
  <text x="80" y="38" text-anchor="middle" fill="white" font-family="Arial, sans-serif" font-size="12" font-weight="bold">PREMIUM HILLSIDE</text>
</svg>